<?xml version="1.0"?>
<svg xmlns:rdf="http://www.w3.org/1999/02/22-rdf-syntax-ns#" xmlns="http://www.w3.org/2000/svg" xmlns:cc="http://web.resource.org/cc/" xmlns:dc="http://purl.org/dc/elements/1.1/" xmlns:svg="http://www.w3.org/2000/svg" id="Layer_1" xml:space="preserve" overflow="visible" viewBox="0 0 194.847 827.201" version="1.1" enable-background="new 0 0 194.847 827.201">
<g id="g2292" fill="#636466"><polygon id="polygon2245" points="168.3 594.44 21.807 595.54 22.912 580.62 159.45 579.51 166.08 580.62"/><path id="path2247" d="m33.415 576.2l124.93-1.658-4.239-60.438s-1.842-1.612-9.028 4.468c-7.186 6.081-0.829-4.422-0.829-4.422s-2.856-12.76-3.225-13.682c-0.369-0.921-2.579 0.736-2.579 1.659 0 0.921 0.184-4.791-0.369-5.344s-2.396-4.606-4.79 1.474c-2.396 6.08-7.003 60.254-7.003 60.254s0.186 11.239-0.736 11.977c-0.922 0.736-11.056-8.661-11.056-10.319 0-1.657 12.161-57.12 11.423-59.147-0.736-2.026-14.555 11.241-18.425 10.688-3.87-0.554 0.921 43.116 0.184 43.484s-7.739 6.817-9.581 7.739 3.685-40.538 3.685-43.67c0-3.133-11.978 15.293-12.899 21.006-0.921 5.712-2.395 1.52-4.054-0.737-0.852-1.16 3.133-16.215 2.765-16.768-0.368-0.552-6.634 2.211-7.371 3.316-0.738 1.106-6.634 31.693-11.241 35.193-4.606 3.502-0.736-19.162-2.21-19.9-1.475-0.736-8.292 5.897-8.292 5.897s1.29 22.663-0.185 24.321c-1.474 1.659-3.869 1.107-4.791 0.369-0.921-0.737 4.791-12.897 4.423-14.371-0.369-1.476-0.554-3.317-1.475-2.212s0.738-4.423-0.184-4.975c-0.922-0.553-2.948 0.552-2.948 0.552s-6.818 16.953-8.292 18.426c-1.457 1.47-10.485 2.58-11.591 6.82z"/><path id="path2249" d="m21.255 107.25c0.368-1.475 1.473-3.87 2.395-4.054 0.921-0.185-0.737-6.081-0.737-6.081s15.294-2.21 16.584 2.211c1.289 4.423-0.185 4.422-0.185 4.791 0 0.368 7.555 9.029 4.976 29.482-2.581 20.452 7.554 53.067 5.711 65.597-1.842 12.529-2.948 14.372-4.79 21.373-1.843 7.003-4.976-28.007-7.187-30.218s-3.316-10.318-1.105-10.871 4.054-5.528 5.16-6.451c1.105-0.92-4.054-26.164-4.423-27.27 0 0-2.763 6.818-5.527 2.764-2.764-4.055 1.474-10.688 1.105-12.162-0.369-1.475-0.553-10.872 0.184-11.793 0.738-0.92 0.922-5.896 0.369-6.08-0.553-0.185-4.054 0.921-5.896 1.105s-3.869-4.975-2.395-4.975c1.473 0-1.66-4.422-1.843-5.528-0.186-1.1-2.396-1.84-2.396-1.84z"/><path id="path2251" d="m30.283 206.94c1.116 0.107 1.659 20.269 1.659 20.269s1.842 8.844 2.948 10.503c1.105 1.658-1.474 5.159-4.975 5.527-3.5 0.369-5.159-0.184-5.159-0.184-0.369-0.185-1.106 9.766-1.291 10.318-0.185 0.553-7.186-4.791-7.001-11.793 0.183-7.01 8.107-35.21 13.819-34.65z"/><path id="path2253" d="m141.48 328.96c-0.569-0.57 16.032-23.908 16.032-23.908l3.315 0.829 0.553-5.251 32.339 13.542-3.594 2.902 2.211 2.626-4.976 6.633s7.188 7.048 6.496 11.056c-0.69 4.008-21.144 25.013-23.079 25.428s-12.437 20.039-12.437 20.039l-7.878-1.105s-4.146-25.151-7.463-28.054c-3.316-2.901-2.764-5.251-2.073-8.153 0.7-2.92 0.98-16.18 0.56-16.6z"/><path id="path2255" d="m111.17 272.35c-0.736 0.736-31.693 73.335-32.798 76.652-1.105 3.316-7.739 31.692-18.426 49.013s-12.53 26.533-12.898 32.799 2.211 15.109 1.843 18.794c-0.369 3.686-10.688 16.216-11.056 23.218-0.369 7.001 1.105 7.37 1.105 7.37s13.267-7.738 18.426-11.424 28.376-41.643 30.22-58.595c1.842-16.953 9.95-40.537 11.055-43.118 1.105-2.58 12.162-46.802 11.793-51.225-0.37-4.422 1.474-39.063 1.474-39.063l-0.73-4.43z"/><path id="path2257" d="m38.557 485.07s51.849-34.812 58.781-56.209l4.035-5.54c0.732-1.477-12.015 44.631-18.257 51.652-6.242 7.023-9.172 12.191-10.265 16.618-1.091 4.425-8.763 24.72-11.687 32.1-2.925 7.381-5.478 15.496-6.2 19.921-0.723 4.425-20.217 15.912-22.808 12.604-2.59-3.309-1.498-7.365-1.498-7.365s-5.535-2.192-0.396-8.476c5.139-6.281-0.223-6.98-0.164-8.543 0.093-2.35-0.342-34.19 8.462-46.75z"/><path id="path2259" d="m115.5 408.15s-1.106 89.274-3.317 94.526c-2.21 5.251-23.493 8.015-32.337 17.136-8.845 9.121-11.885 14.925-16.86 18.795-4.976 3.869-7.187 8.845-6.634 7.462 0.553-1.382 19.071-49.197 32.062-66.058 12.991-16.859 9.95-33.167 12.714-39.247 2.78-6.09 10.51-29.58 14.38-32.62z"/><path id="path2261" d="m121.58 358.12c0 0.829-1.381 121.61-1.381 123.82 0 2.211 34.272-18.242 37.037-22.112 2.763-3.869-14.097-79.325-15.756-90.656-1.658-11.333-5.804-33.444-7.462-35.379-1.658-1.934-2.488 15.755-5.527 16.584-3.04 0.84-6.91 7.75-6.91 7.75z"/><path id="path2263" d="m114.67 271.61s20.177 19.348 24.047 43.117c3.869 23.771 0.229 8.247-0.276 9.121-0.879 1.517-3.87-9.121-8.292-5.527-4.423 3.593-6.357 4.146-6.357 5.251s-0.553-24.046-0.553-24.046l-8.57-27.91z"/><path id="path2265" d="m25.953 257.52s20.176-9.121 22.387-11.608c2.211-2.488-18.794 24.599-21.835 24.322-3.04-0.276-5.804-1.106-4.974-2.211 0.829-1.106 1.105-6.08 1.935-6.357 0.828-0.27 2.487-4.14 2.487-4.14z"/><path id="path2267" d="m100.3 266.08c-0.276 0.828-23.494 25.98-32.891 32.061s-21.006 21.835-24.046 27.916c-3.041 6.081-12.162 20.453-13.543 24.6-1.382 4.145-2.211 8.844-1.659 12.437 0.553 3.594 2.005 6.231 3.041 7.187 1.199 1.105 5.712 1.842 7.094 1.29 1.382-0.553 3.686-1.842 3.686-1.842s9.121-48.092 11.608-48.645c2.487-0.553 2.21 8.015-0.829 14.372-3.041 6.357-2.488 7.462-2.764 8.568-0.276 1.105 0.553 2.211 0.553 2.211s36.207-55.002 38.142-59.701c1.936-4.71 11.608-20.47 11.608-20.47z"/><path id="path2269" d="m83.718 318.32c-0.829 0.829-49.197 74.625-49.75 82.641s1.659 8.568 3.04 9.674c1.382 1.106 6.081 0 6.91-0.553 0.83-0.553 4.146-9.95 4.146-9.95l35.654-81.81z"/><path id="path2271" d="m47.511 292.07c-1.106 2.488-16.307 12.714-15.478 14.925s1.382 4.423 2.488 4.423c1.105 0 1.657 0.276 1.934 1.382 0.277 1.105 0 1.381 0.553 3.04 0.553 1.658 2.211 5.528 2.211 5.528l8.292-29.3z"/><path id="path2273" d="m107.67 223.06c0.645-0.092 4.791 0.093 3.869-1.842-0.797-1.675-2.282-7.349-1.89-10.279l28.423-1.052s-20.293-4.008-27.21-5.309c-0.007-1.179-0.1-2.378-0.244-3.465l25.427-10.206s-21.837 3.591-27.452 4.431c-1.042-1.969-2.121-3.603-2.121-3.603-0.268-0.244-0.535-0.479-0.803-0.707l18.584-19.469s-18.997 13.208-23.423 16.181c-2.448-1.28-4.895-2.023-7.269-2.369l0.657-25.789c0 0.467-5.405 19.785-7.07 25.73-3.37 0.405-6.41 1.423-8.861 2.513l-17.973-18.477 12.544 21.481c-0.487 0.333-0.75 0.538-0.75 0.538-1.551 1.105-2.883 2.239-4.029 3.386l-21.584-0.346 0.369 2.948 16.726 3.616c-0.617 1.291-1.052 2.566-1.348 3.808l-7.086 0.867 0.06 0.199c-1.697-2.762-3.191-4.437-3.191-4.437s1.289 7.187 0.184 14.557c-1.106 7.371-20.084 29.851-20.084 29.851s-0.922 2.026 5.712 1.29c6.633-0.737 18.242-8.292 21.559-21.006 1.6-6.134-0.062-12.091-2.208-16.62l4.565 0.726c0.27 5.398 2.617 9.261 2.617 9.261 0-0.368 6.081-7.187 7.831-6.726s10.688-4.053 11.147-3.592c0.461 0.461 4.239 3.5 4.239 3.5s3.684 1.75 3.684 2.119 0.185 9.214-0.276 9.306-1.842 0.461-1.842 0.461-0.646 4.605-1.29 4.422c-0.644-0.184-0.828 1.105-1.198 1.474-0.368 0.368 3.224 3.041 3.224 3.041s1.199 3.686 0 3.778c-1.197 0.092-1.935 4.975-1.105 5.896 0.829 0.921 2.396 0.921 2.857 0.83 0.46-0.092 1.75 1.014 5.527-0.645 3.777-1.658 9.582-18.426 9.582-18.426s0.27-1.76 0.91-1.85zm4.24 33.17c0.092-0.276-3.225-12.714-2.764-12.991 0.461-0.275 1.659-1.104 2.488-3.04 0.83-1.935-1.75-6.173-1.75-6.357s-2.027-7.646-2.027-7.646c0 0.46-7.922 17.873-7.922 17.873s0.368 8.476 0.553 9.305c0.184 0.83 3.316 0.276 3.316 0.645s0.369 6.634 0.553 6.634c0.185 0 1.014 1.013 2.12 0.092 1.105-0.921 6.265-0.553 6.265-0.553s-0.92-3.67-0.83-3.94zm-79.877 31.69c-3.594 1.935-3.041 2.211-2.488 3.041 0.553 0.829 1.105 2.488 1.105 2.488s-1.382-1.382-2.211 2.763c-0.829 4.146-1.105 5.252-0.276 5.528s17.965-9.95 20.729-16.859c2.764-6.911 12.714-34.273 12.714-34.273-0.275 1.1-25.98 35.37-29.573 37.31zm19.624-32.89l9.397-22.941c-0.276 1.105-14.373 17.689-16.031 25.98-1.658 8.292-3.316 9.95-4.422 11.885-1.105 1.93 11.056-14.93 11.056-14.93zm35.931 3.32c-1.106-0.276-3.317-2.21-5.804-4.421-2.488-2.212-9.397-11.885-9.397-11.885-1.935-4.975-8.845-9.674-7.187-7.462 1.658 2.211-1.381 29.297-1.934 30.956-0.553 1.658-11.885 34.272-11.056 33.167s3.316-3.317 6.909-5.527c3.594-2.211 1.935-5.805 2.488-11.056 0.553-5.252 1.659-4.423 3.593-8.845 1.935-4.423 6.357-4.699 9.674-5.805 3.317-1.105 10.503-2.763 11.608-3.04 1.106-0.29 2.211-5.82 1.106-6.09z"/><path id="path2275" d="m19.042 94.446s13.129-6.219 22.872-0.207 6.219 1.451 10.71-5.528c0 0-0.691-3.8-10.917-5.527-10.227-1.728-18.38-0.069-18.38-0.069s-8.844 1.728-11.678 5.044c-2.833 3.316 7.393 6.287 7.393 6.287z"/><path id="path2277" d="m14.206 84.012s14.925-9.674 35.516-0.691 0.276-5.736 1.589-6.219c1.313-0.484-18.726-8.224-37.659-0.553 0.001 0.001 2.696 3.386 0.554 7.463z"/><path id="path2279" d="m25.654 66.208c0.004 0.012 1.479 0.766 1.858 0.996 3.113 2.301 12.499-0.969 12.499-0.969s12.769-7.053 10.864-23.635 0.148 5.036-5.416 9.644c-0.522-2.381-1.227-4.352-2.612-7.122-0.66-1.321-1.236-2.409-1.73-3.405 0.141-0.158 0.281-0.312 0.419-0.451 2.478-2.478 14.671-12.962 2.762-41.266 0 0 1.715 20.014-2.574 23.444-4.289 3.431-23.157 11.437-22.586 27.447 0.572 16.01 3.057 13.021 6.538 15.339"/><rect id="rect2281" y="605.82" width="168.31" x="8.291" height="28.19"/><rect id="rect2283" y="641.48" width="194.85" height="29.849"/><path id="path2285" d="m12.438 682.93v144.27h165.83v-144.27h-165.83zm64.444 51.41h-22.005v-40.63h22.005v40.63zm31.958 0h-22v-40.63h22.005v40.63zm34.59 0h-22.01v-40.63h22.005v40.63z"/></g>
<metadata><rdf:RDF><cc:Work><dc:format>image/svg+xml</dc:format><dc:type rdf:resource="http://purl.org/dc/dcmitype/StillImage"/><cc:license rdf:resource="http://creativecommons.org/licenses/publicdomain/"/><dc:publisher><cc:Agent rdf:about="http://openclipart.org/"><dc:title>Openclipart</dc:title></cc:Agent></dc:publisher><dc:title>Statue of Liberty NY</dc:title><dc:date>2007-09-25T21:16:11</dc:date><dc:description>Statue of Liberty</dc:description><dc:source>http://openclipart.org/detail/6065/statue-of-liberty-ny-by-shokunin</dc:source><dc:creator><cc:Agent><dc:title>shokunin</dc:title></cc:Agent></dc:creator><dc:subject><rdf:Bag><rdf:li>america</rdf:li><rdf:li>clip art</rdf:li><rdf:li>clipart</rdf:li><rdf:li>image</rdf:li><rdf:li>landmarks</rdf:li><rdf:li>media</rdf:li><rdf:li>new york</rdf:li><rdf:li>png</rdf:li><rdf:li>public domain</rdf:li><rdf:li>statue of liberty</rdf:li><rdf:li>svg</rdf:li><rdf:li>tourism</rdf:li><rdf:li>usa</rdf:li><rdf:li>world heritage</rdf:li></rdf:Bag></dc:subject></cc:Work><cc:License rdf:about="http://creativecommons.org/licenses/publicdomain/"><cc:permits rdf:resource="http://creativecommons.org/ns#Reproduction"/><cc:permits rdf:resource="http://creativecommons.org/ns#Distribution"/><cc:permits rdf:resource="http://creativecommons.org/ns#DerivativeWorks"/></cc:License></rdf:RDF></metadata></svg>
